<?xml version="1.0" standalone="no"?>
<!DOCTYPE svg PUBLIC "-//W3C//DTD SVG 20010904//EN"
 "http://www.w3.org/TR/2001/REC-SVG-20010904/DTD/svg10.dtd">
<svg version="1.0" xmlns="http://www.w3.org/2000/svg"
 width="300.000000pt" height="75.000000pt" viewBox="0 0 300.000000 75.000000"
 preserveAspectRatio="xMidYMid meet">

<g transform="translate(0.000000,75.000000) scale(0.100000,-0.100000)"
fill="#000000" stroke="none">
<path d="M1550 665 c0 -25 -4 -45 -10 -45 -5 0 -10 11 -10 25 0 24 -2 25 -72
25 l-73 0 -43 -65 c-23 -36 -38 -65 -32 -65 5 0 10 -15 10 -34 0 -45 -32 -59
-58 -26 -16 20 -21 21 -40 9 -12 -7 -26 -26 -32 -42 -8 -24 -7 -27 8 -23 125
38 499 33 637 -8 11 -3 3 2 -17 12 -30 13 -38 23 -38 45 0 20 5 27 20 27 31 0
40 30 21 70 -14 29 -22 35 -45 33 -41 -3 -42 -8 -12 -47 32 -43 32 -46 -1 -46
-25 -1 -26 -2 -10 -14 26 -20 23 -50 -5 -42 -13 3 -26 6 -30 6 -15 0 -9 78 6
82 10 2 2 21 -26 66 -39 61 -40 62 -85 62 -40 0 -45 2 -40 20 3 13 0 20 -9 20
-10 0 -14 -13 -14 -45z m-112 -65 c18 -28 32 -63 32 -80 0 -32 -6 -35 -92 -43
l-48 -5 0 41 c0 28 9 55 31 89 17 26 34 48 38 48 3 0 21 -23 39 -50z m212 14
c0 -3 -9 -17 -20 -31 -12 -16 -20 -41 -20 -65 0 -37 -2 -39 -27 -36 -23 2 -29
8 -31 35 -4 41 42 103 76 103 12 0 22 -3 22 -6z m20 -84 c0 -13 -7 -20 -20
-20 -13 0 -20 7 -20 20 0 13 7 20 20 20 13 0 20 -7 20 -20z"/>
<path d="M1380 530 c0 -11 6 -20 14 -20 7 0 16 9 19 20 4 15 0 20 -14 20 -12
0 -19 -7 -19 -20z"/>
<path d="M1340 328 c3 -41 5 -51 8 -30 2 22 9 32 20 32 15 1 14 3 -3 16 -20
15 -20 15 -1 30 19 14 19 14 -5 14 -23 0 -24 -2 -19 -62z"/>
<path d="M1393 374 c-3 -8 4 -25 16 -38 22 -24 28 -46 11 -46 -5 0 -10 5 -10
10 0 6 -4 10 -10 10 -5 0 -10 -6 -10 -14 0 -16 27 -29 41 -20 14 8 10 50 -6
64 -8 7 -15 19 -15 27 0 13 3 13 15 3 12 -10 15 -10 15 4 0 21 -39 21 -47 0z"/>
<path d="M1468 330 c2 -33 7 -60 12 -60 5 0 10 27 12 60 2 48 0 60 -12 60 -12
0 -14 -12 -12 -60z"/>
<path d="M1518 333 c-4 -63 -2 -75 12 -53 7 12 11 12 26 -1 16 -13 17 -11 11
26 -4 22 -7 50 -7 63 0 15 -6 22 -19 22 -16 0 -20 -9 -23 -57z m32 7 c0 -16
-4 -30 -10 -30 -5 0 -10 14 -10 30 0 17 5 30 10 30 6 0 10 -13 10 -30z"/>
<path d="M1590 336 c0 -58 11 -76 35 -56 17 14 20 40 5 40 -5 0 -10 -7 -10
-15 0 -8 -4 -15 -10 -15 -5 0 -10 20 -10 45 0 25 5 45 10 45 6 0 10 -7 10 -15
0 -8 5 -15 11 -15 20 0 4 35 -19 38 -20 3 -22 0 -22 -52z"/>
<path d="M1657 358 c1 -18 2 -46 4 -63 l2 -30 7 35 c7 36 10 33 26 -19 9 -29
13 -3 4 28 -5 20 -5 42 0 57 5 13 6 24 1 24 -5 0 -12 -10 -16 -22 l-8 -23 -4
23 c-7 34 -18 26 -16 -10z"/>
</g>
</svg>
