<?xml version="1.0" standalone="no"?>
<!DOCTYPE svg PUBLIC "-//W3C//DTD SVG 20010904//EN"
 "http://www.w3.org/TR/2001/REC-SVG-20010904/DTD/svg10.dtd">
<svg version="1.0" xmlns="http://www.w3.org/2000/svg"
 width="300.000000pt" height="75.000000pt" viewBox="0 0 300.000000 75.000000"
 preserveAspectRatio="xMidYMid meet">
<metadata>
Created by potrace 1.16, written by Peter Selinger 2001-2019
</metadata>
<g transform="translate(0.000000,75.000000) scale(0.100000,-0.100000)"
fill="#000000" stroke="none">
<path d="M1540 700 c0 -18 -7 -20 -79 -20 l-78 0 -48 -72 c-28 -42 -43 -74
-36 -76 14 -5 15 -49 1 -57 -6 -4 -19 4 -29 16 -16 21 -20 21 -50 8 -22 -9
-34 -23 -38 -41 -4 -20 -16 -30 -49 -43 -24 -9 -44 -21 -44 -26 0 -13 8 -12
65 10 86 33 201 44 398 38 173 -4 263 -18 340 -52 9 -4 17 -3 17 2 0 5 -27 22
-60 38 -41 19 -60 34 -60 47 0 10 7 18 15 18 8 0 21 10 30 23 13 20 13 27 -2
60 -19 42 -32 49 -73 40 -35 -6 -37 -18 -10 -53 25 -32 25 -40 0 -40 -11 0
-20 -6 -20 -14 0 -8 9 -18 20 -21 11 -3 20 -11 20 -17 0 -5 -7 -7 -16 -4 -9 3
-20 6 -25 6 -5 0 -9 14 -9 30 0 21 5 30 16 30 19 0 19 0 -31 83 -39 66 -41 67
-83 67 -39 0 -43 2 -37 20 5 16 2 20 -19 20 -19 0 -26 -5 -26 -20z"/>
<path d="M1330 329 c0 -55 3 -69 15 -69 10 0 15 10 15 29 0 17 6 31 16 35 9 3
12 11 8 18 -5 8 0 7 11 -2 16 -13 16 -15 2 -18 -23 -5 -21 -39 2 -52 29 -15
51 -2 51 30 0 16 -4 32 -10 35 -6 4 -5 11 3 19 10 11 13 4 17 -38 4 -36 9 -51
20 -51 11 0 17 15 21 55 l6 55 1 -57 c2 -59 8 -68 30 -46 9 9 12 9 12 0 0 -7
7 -12 15 -12 8 0 15 5 15 11 0 8 4 8 14 0 11 -9 20 -10 35 -1 12 6 21 7 21 1
0 -5 16 -9 36 -9 34 0 35 1 28 32 -9 39 -9 45 0 79 6 26 5 27 -29 27 -19 0
-35 -5 -35 -10 0 -6 -7 -6 -19 1 -27 18 -49 4 -54 -33 l-4 -33 -1 38 c-2 32
-5 37 -27 37 -14 0 -25 -6 -25 -12 0 -10 -2 -10 -8 -2 -4 8 -40 12 -94 12
l-88 0 0 -69z"/>
<path d="M1423 233 c-7 -3 -13 -16 -13 -29 l0 -24 181 0 180 0 -3 23 c-2 17
-9 22 -33 22 -16 -1 -33 4 -37 9 -4 6 -11 6 -20 -2 -8 -6 -19 -7 -28 -2 -8 5
-18 6 -23 3 -13 -8 -186 -10 -190 -2 -1 3 -8 4 -14 2z"/>
</g>
</svg>
